<svg width="744" height="252" viewBox="0 0 744 252" fill="none" xmlns="http://www.w3.org/2000/svg">
<path d="M341.633 42.1367C342.805 43.0591 342.805 43.0591 344 44C344.761 44.584 345.521 45.1679 346.305 45.7695C360.547 57.4742 367.568 74.0362 370 92C371.548 110.004 366.258 126.639 355.5 141C354.357 142.354 353.191 143.688 352 145C351.397 145.683 350.793 146.366 350.172 147.07C338.83 159.196 322.655 166.434 306.092 167.175C301.381 167.256 296.672 167.225 291.961 167.195C290.226 167.192 288.492 167.189 286.757 167.187C282.223 167.179 277.689 167.16 273.155 167.137C268.516 167.117 263.877 167.108 259.238 167.098C250.159 167.076 241.079 167.042 232 167C231.907 157.106 231.836 147.213 231.793 137.319C231.772 132.723 231.744 128.128 231.698 123.532C231.654 119.084 231.631 114.636 231.62 110.188C231.613 108.504 231.599 106.821 231.577 105.137C231.298 82.7376 237.178 64.4641 252.75 47.875C276.418 24.981 315.323 22.5092 341.633 42.1367ZM263.258 65.3672C253.536 76.7038 250.358 89.1611 250.609 103.859C250.615 105.13 250.621 106.4 250.626 107.709C250.645 111.043 250.681 114.377 250.725 117.711C250.767 121.13 250.785 124.549 250.805 127.969C250.849 134.646 250.915 141.323 251 148C258.207 148.093 265.414 148.164 272.622 148.207C275.97 148.228 279.318 148.258 282.666 148.302C286.531 148.351 290.396 148.373 294.262 148.391C296.031 148.422 296.031 148.422 297.837 148.453C313.477 148.457 325.812 142.944 337.25 132.438C347.396 121.855 351.496 108.942 351.25 94.5274C350.231 80.1528 343.42 68.6787 333 59C310.751 41.8206 282.376 45.2896 263.258 65.3672Z" fill="#262E39"/>
<path d="M23.039 33.6641C24.4095 33.6541 24.4095 33.6541 25.8077 33.6439C27.7529 33.6338 29.6982 33.6291 31.6435 33.6294C34.565 33.6251 37.485 33.589 40.4062 33.5508C59.9264 33.4326 78.0615 36.5303 92.6875 50.5938C106.667 65.1401 112.547 81.2952 112.347 101.288C111.88 118.555 105.098 134.268 92.7851 146.445C75.7176 162.101 56.0497 164.184 33.884 164.24C31.5428 164.25 29.2023 164.281 26.8613 164.313C25.3672 164.319 23.873 164.324 22.3789 164.328C21.682 164.341 20.9852 164.353 20.2672 164.366C15.48 164.343 15.48 164.343 13.3169 162.796C11.5545 160.392 11.6252 158.875 11.6257 155.907C11.6187 154.854 11.6117 153.801 11.6045 152.716C11.6121 151.561 11.6198 150.406 11.6277 149.217C11.624 148 11.6204 146.784 11.6166 145.53C11.6099 142.194 11.6166 138.857 11.6299 135.521C11.6412 132.031 11.6371 128.542 11.6352 125.053C11.6343 119.195 11.6454 113.336 11.6638 107.478C11.685 100.699 11.6885 93.9211 11.6822 87.1426C11.6765 80.6269 11.6822 74.1114 11.6934 67.5957C11.6981 64.8202 11.6989 62.0448 11.6968 59.2693C11.6946 55.3975 11.709 51.5259 11.7253 47.6541C11.7228 46.4971 11.7204 45.3402 11.7178 44.1482C11.7249 43.098 11.732 42.0478 11.7393 40.9658C11.7413 40.0498 11.7434 39.1337 11.7455 38.1899C12.4356 32.2515 18.4322 33.6757 23.039 33.6641ZM30 53C29.9047 55.861 29.8744 58.6977 29.8864 61.5589C29.8863 62.4563 29.8862 63.3538 29.886 64.2785C29.8867 67.2599 29.8945 70.2413 29.9023 73.2227C29.9042 75.2839 29.9056 77.3452 29.9066 79.4064C29.9104 84.8431 29.9203 90.2797 29.9313 95.7164C29.9415 101.26 29.9461 106.803 29.9511 112.346C29.9619 123.231 29.979 134.115 30 145C33.194 145.022 36.3879 145.035 39.582 145.047C40.9288 145.056 40.9288 145.056 42.3028 145.066C52.6164 145.094 61.8545 144.022 71 139C71.7502 138.59 72.5004 138.18 73.2734 137.758C83.8935 131.342 89.374 121.747 93.25 110.313C96.1519 97.0165 93.3845 83.6135 86.3984 72.0547C79.3289 61.6677 70.3251 55.6562 58 53C52.1777 51.9539 46.518 51.8494 40.625 51.875C39.711 51.8712 38.7971 51.8673 37.8554 51.8633C36.9879 51.8646 36.1204 51.8659 35.2265 51.8672C34.4384 51.8683 33.6503 51.8695 32.8383 51.8706C30.982 51.7994 30.982 51.7994 30 53Z" fill="#262E39"/>
<path d="M323 71C331.027 78.2754 335.338 86.643 336.035 97.4922C335.896 107.446 332.367 116.071 325.687 123.402C314.254 134.227 300.077 133.393 285.375 133.188C283.493 133.172 281.612 133.159 279.73 133.147C275.153 133.114 270.577 133.062 266 133C265.925 127.487 265.871 121.973 265.835 116.46C265.82 114.588 265.8 112.716 265.774 110.844C265.573 96.0786 265.929 84.6855 276 73C280.99 68.1721 286.309 65.6635 293 64C294.072 63.7319 295.145 63.4638 296.25 63.1875C306.333 62.6834 315.051 64.6543 323 71Z" fill="#262E39"/>
<path d="M698.312 79.5C699.139 79.5057 699.966 79.5115 700.818 79.5173C710.867 79.8085 719.03 83.1181 726.32 90.1211C734.81 99.6182 736.934 110.489 737 123C736.505 123.99 736.505 123.99 736 125C732.979 126.007 730.864 126.154 727.702 126.205C726.621 126.225 725.541 126.245 724.427 126.266C723.261 126.282 722.096 126.299 720.895 126.316C719.7 126.337 718.506 126.358 717.275 126.379C713.454 126.445 709.633 126.504 705.812 126.563C703.225 126.606 700.637 126.649 698.049 126.693C691.699 126.801 685.35 126.902 679 127C679.144 128.271 679.288 129.541 679.437 130.851C679.518 131.565 679.599 132.28 679.682 133.017C680.482 138.006 683.884 141.854 687.312 145.375C692.892 148.748 698.41 149.556 704.773 148.594C712.424 146.554 717.232 141.004 722 135C725.576 135.563 728.188 136.447 731.25 138.375C731.936 138.795 732.622 139.215 733.328 139.648C735 141 735 141 736 144C730.594 153.565 721.585 161.014 711 164C700.748 166.506 689.122 165.538 679.641 160.828C677.682 159.635 675.842 158.363 674 157C673.134 156.443 672.267 155.886 671.375 155.313C662.298 146.474 659.586 134.999 659 122.781C659 110.478 662.264 98.0274 671 89C679.096 82.2633 687.856 79.4151 698.312 79.5ZM681.055 104.25C679.647 106.586 679.516 108.338 680 111C683.045 112.523 686.221 112.163 689.562 112.168C690.31 112.171 691.057 112.175 691.826 112.178C693.407 112.183 694.987 112.185 696.567 112.185C698.99 112.188 701.413 112.206 703.836 112.225C705.37 112.228 706.904 112.23 708.438 112.23C709.165 112.238 709.892 112.245 710.641 112.252C714.775 112.365 714.775 112.365 718 110C718 105.509 715.635 102.745 712.727 99.582C707.99 95.2421 702.675 94.431 696.488 94.6563C689.799 95.5803 685.198 99.0537 681.055 104.25Z" fill="#262E38"/>
<path d="M443.961 82.4102C449.06 86.3856 452.948 90.8278 455 97C455.241 100.107 455.241 100.107 455.227 103.626C455.227 104.271 455.228 104.915 455.228 105.579C455.227 107.695 455.211 109.81 455.195 111.926C455.192 113.398 455.189 114.871 455.187 116.344C455.179 120.209 455.16 124.073 455.137 127.938C455.117 131.887 455.108 135.835 455.098 139.783C455.076 147.522 455.042 155.261 455 163C452.03 164.485 449.302 164.171 446 164.188C444.113 164.209 444.113 164.209 442.188 164.23C439 164 439 164 437 162C436.748 159.643 436.748 159.643 436.745 156.652C436.738 155.533 436.731 154.415 436.724 153.262C436.725 152.048 436.726 150.833 436.727 149.582C436.706 147.023 436.685 144.464 436.664 141.904C436.639 137.86 436.624 133.816 436.619 129.771C436.61 125.875 436.576 121.979 436.539 118.082C436.544 116.878 436.549 115.673 436.554 114.432C436.476 107.767 436.128 103.351 432 98C427.283 95.0405 423.5 94.5738 418.137 95.4297C412.137 97.0311 408.53 101.195 405 106C403.345 109.493 402.748 112.258 402.729 116.11C402.719 117.101 402.708 118.092 402.698 119.113C402.696 120.171 402.694 121.23 402.691 122.32C402.666 124.569 402.641 126.818 402.615 129.066C402.586 132.606 402.562 136.146 402.544 139.686C402.522 143.106 402.483 146.526 402.441 149.945C402.441 151.008 402.441 152.07 402.441 153.165C402.428 154.15 402.414 155.134 402.401 156.149C402.393 157.449 402.393 157.449 402.385 158.775C401.915 161.491 401.204 162.382 399 164C395.969 164.398 395.969 164.398 392.5 164.375C390.783 164.387 390.783 164.387 389.031 164.398C386 164 386 164 384.334 162.942C382.305 159.988 382.591 156.989 382.628 153.531C382.624 152.773 382.62 152.015 382.617 151.234C382.609 148.727 382.622 146.221 382.637 143.715C382.637 141.975 382.637 140.235 382.635 138.496C382.635 134.85 382.646 131.204 382.664 127.558C382.687 122.878 382.687 118.199 382.68 113.519C382.677 109.927 382.684 106.335 382.693 102.743C382.697 101.017 382.698 99.2911 382.697 97.5651C382.697 95.1564 382.709 92.7482 382.725 90.3396C382.723 89.6222 382.72 88.9047 382.718 88.1655C382.771 83.2288 382.771 83.2288 385 81C387.563 80.8284 390.004 80.7674 392.563 80.8125C393.261 80.8132 393.959 80.8138 394.678 80.8145C399.86 80.8597 399.86 80.8597 401 82C401.233 83.6819 401.413 85.3713 401.563 87.0625C401.688 88.4412 401.688 88.4412 401.816 89.8477C401.877 90.558 401.938 91.2682 402 92C403.069 90.9694 403.069 90.9694 404.16 89.918C415.507 79.2431 429.255 73.1853 443.961 82.4102Z" fill="#272E39"/>
<path d="M630 84C635.451 88.9057 638.648 93.6559 639.254 101.138C639.256 102.255 639.257 103.373 639.259 104.524C639.268 106.436 639.268 106.436 639.278 108.386C639.274 109.763 639.27 111.139 639.266 112.516C639.267 113.937 639.269 115.359 639.271 116.78C639.274 119.749 639.27 122.718 639.261 125.687C639.249 129.495 639.256 133.304 639.268 137.113C639.275 140.043 639.273 142.974 639.268 145.904C639.266 147.309 639.268 148.714 639.273 150.119C639.278 152.077 639.269 154.035 639.259 155.993C639.257 157.108 639.256 158.222 639.254 159.37C639 162 639 162 637 164C633.813 164.266 633.813 164.266 630 164.25C628.742 164.255 627.484 164.26 626.188 164.266C623 164 623 164 621 162C620.748 159.687 620.748 159.687 620.745 156.759C620.738 155.664 620.731 154.569 620.724 153.441C620.725 152.251 620.726 151.062 620.727 149.836C620.706 147.327 620.685 144.818 620.664 142.309C620.642 138.346 620.625 134.383 620.619 130.419C620.61 126.6 620.576 122.781 620.539 118.961C620.544 117.784 620.549 116.606 620.554 115.393C620.472 108.484 619.808 103.836 616 98C611.269 94.9387 607.485 94.6535 602.082 95.4727C599.365 96.1609 597.288 97.4057 595 99C594.34 99 593.68 99 593 99C592.569 99.8682 592.569 99.8682 592.129 100.754C591.42 102.164 590.7 103.569 589.965 104.965C589.626 105.616 589.287 106.267 588.938 106.938C588.596 107.586 588.254 108.234 587.902 108.902C586.231 112.787 585.874 116.688 585.795 120.882C585.775 121.823 585.755 122.763 585.734 123.732C585.709 125.236 585.709 125.236 585.684 126.77C585.663 127.806 585.642 128.842 585.621 129.909C585.555 133.21 585.496 136.511 585.438 139.813C585.394 142.054 585.351 144.296 585.307 146.537C585.2 152.025 585.098 157.512 585 163C582.03 164.485 579.302 164.171 576 164.188C574.113 164.209 574.113 164.209 572.188 164.23C569 164 569 164 567 162C566.807 159.481 566.738 157.072 566.757 154.553C566.755 153.785 566.753 153.018 566.751 152.227C566.748 149.682 566.758 147.138 566.77 144.594C566.771 142.83 566.771 141.067 566.771 139.303C566.773 135.604 566.781 131.905 566.794 128.207C566.811 123.458 566.815 118.71 566.814 113.962C566.815 110.319 566.82 106.677 566.827 103.034C566.83 101.283 566.832 99.532 566.833 97.7808C566.835 95.3363 566.844 92.8918 566.855 90.4473C566.854 89.7189 566.854 88.9905 566.853 88.2401C566.886 83.229 566.886 83.229 568 81C570.646 80.9732 573.292 80.9533 575.938 80.9375C577.07 80.9249 577.07 80.9249 578.225 80.9121C580.15 80.9035 582.075 80.9478 584 81C585.663 82.6634 585.361 84.7826 585.563 87.0625C585.688 88.4412 585.688 88.4412 585.816 89.8477C585.877 90.5579 585.938 91.2682 586 92C586.413 91.5527 586.825 91.1054 587.25 90.6445C599.282 78.0485 614.628 73.3862 630 84Z" fill="#272E39"/>
<path d="M488.727 18.8633C489.852 18.8691 489.852 18.8691 491 18.875C491.75 18.8711 492.5 18.8672 493.273 18.8633C498.873 18.8734 498.873 18.8734 500 20C500.101 21.8303 500.131 23.6645 500.134 25.4976C500.138 26.6909 500.142 27.8842 500.147 29.1137C500.146 30.4481 500.146 31.7825 500.145 33.1169C500.148 34.5128 500.152 35.9087 500.155 37.3046C500.164 41.1062 500.167 44.9078 500.167 48.7094C500.168 51.8781 500.172 55.0467 500.175 58.2154C500.184 65.6884 500.186 73.1615 500.185 80.6345C500.185 88.3547 500.195 96.0748 500.211 103.795C500.224 110.413 500.229 117.032 500.229 123.65C500.229 127.607 500.231 131.564 500.242 135.521C500.252 139.242 500.252 142.962 500.245 146.683C500.243 148.706 500.251 150.728 500.26 152.751C500.256 153.947 500.252 155.143 500.247 156.375C500.248 157.419 500.248 158.463 500.249 159.539C500 162 500 162 498 164C494.812 164.23 494.813 164.23 491 164.187C489.742 164.181 488.484 164.175 487.188 164.168C484 164 484 164 482 163C481.977 144.372 481.959 125.745 481.948 107.117C481.943 98.4686 481.936 89.8201 481.925 81.1716C481.915 73.6363 481.908 66.1011 481.906 58.5658C481.905 54.5734 481.902 50.5811 481.894 46.5887C481.888 42.8353 481.885 39.0819 481.887 35.3285C481.887 33.9469 481.885 32.5654 481.881 31.1839C481.876 29.3056 481.878 27.4273 481.88 25.5491C481.879 24.4955 481.878 23.4418 481.877 22.3563C482.116 17.7802 484.76 18.8704 488.727 18.8633Z" fill="#272F3A"/>
<path d="M187 82.0001C187.293 86.7145 186.595 89.6523 184.375 93.8125C183.644 95.2453 183.644 95.2453 182.898 96.7071C181 99 181 99 177.977 99.9493C175 100 175 100 172 98C167.087 97.2002 164.134 98.7063 160.027 101.125C155.328 105.471 152.742 109.998 152.388 116.45C152.368 118.505 152.372 120.559 152.398 122.613C152.39 123.705 152.382 124.796 152.374 125.921C152.351 129.385 152.361 132.848 152.375 136.313C152.379 139.795 152.376 143.276 152.354 146.758C152.342 148.919 152.345 151.081 152.364 153.242C152.36 154.217 152.357 155.192 152.353 156.197C152.359 157.483 152.359 157.483 152.365 158.795C151.915 161.513 151.212 162.393 149 164C145.715 164.363 145.715 164.363 141.938 164.313C140.688 164.309 139.439 164.305 138.152 164.301C135 164 135 164 133 162C132.807 159.481 132.738 157.072 132.757 154.553C132.755 153.785 132.753 153.018 132.751 152.227C132.748 149.682 132.758 147.138 132.77 144.594C132.771 142.83 132.771 141.067 132.771 139.303C132.773 135.604 132.781 131.905 132.794 128.207C132.811 123.458 132.815 118.71 132.814 113.962C132.815 110.319 132.82 106.677 132.827 103.034C132.83 101.283 132.832 99.532 132.833 97.7809C132.835 95.3363 132.844 92.8919 132.855 90.4473C132.854 89.7189 132.854 88.9906 132.853 88.2401C132.886 83.229 132.886 83.229 134 81.0001C139.28 81.0001 144.56 81.0001 150 81.0001C150.66 82.9801 151.32 84.9601 152 87.0001C152.424 86.6017 152.848 86.2034 153.285 85.793C163.265 76.7782 175.191 74.5902 187 82.0001Z" fill="#262E38"/>
<path d="M530.726 80.8633C531.852 80.8691 531.852 80.8691 533 80.875C533.75 80.8711 534.5 80.8673 535.273 80.8633C540.873 80.8734 540.873 80.8734 542 82C542.106 84.4841 542.147 86.9406 542.145 89.4255C542.149 90.2028 542.152 90.98 542.155 91.7807C542.165 94.363 542.167 96.9451 542.168 99.5273C542.171 101.315 542.174 103.102 542.178 104.89C542.184 108.641 542.186 112.393 542.185 116.145C542.185 120.962 542.199 125.779 542.216 130.595C542.227 134.289 542.229 137.982 542.229 141.675C542.23 143.451 542.234 145.227 542.242 147.003C542.252 149.484 542.249 151.964 542.243 154.445C542.248 155.184 542.254 155.924 542.26 156.685C542.228 161.772 542.228 161.772 540 164C536.812 164.266 536.812 164.266 533 164.25C531.742 164.255 530.484 164.26 529.187 164.266C526 164 526 164 524 162C523.807 159.446 523.738 157 523.757 154.445C523.755 153.666 523.753 152.887 523.751 152.085C523.748 149.503 523.758 146.921 523.769 144.34C523.771 142.551 523.771 140.763 523.771 138.975C523.772 135.225 523.781 131.475 523.794 127.724C523.811 122.906 523.815 118.089 523.814 113.271C523.814 109.578 523.82 105.885 523.827 102.192C523.83 100.414 523.832 98.6374 523.833 96.8603C523.835 94.382 523.844 91.9038 523.855 89.4255C523.854 88.6842 523.854 87.9429 523.853 87.1791C523.893 80.8464 524.419 80.8747 530.726 80.8633Z" fill="#272F3A"/>
<path d="M536 34C540.36 36.2214 543.133 38.4357 545 43C545.536 47.8273 545.52 49.9789 543.313 54.3125C539.95 58.2208 537.735 59.8107 532.563 60.375C527.859 59.8799 524.711 58.5343 521.188 55.375C518.773 50.5467 518.421 45.8047 520.063 40.6875C524.221 34.9196 529.063 32.6293 536 34Z" fill="#272E38"/>
<path d="M205 142C208.479 143.362 209.708 144.591 211.875 147.625C213.344 152.032 213.376 155.552 212 160C209.5 163 209.5 163 207 165C206.67 165.33 206.34 165.66 206 166C201.484 166.435 197.322 166.506 193.062 164.875C189.828 161.935 188.134 159.233 187.867 154.785C188.112 150.453 188.639 148.444 191.438 145C195.912 141.508 199.456 141.481 205 142Z" fill="#262D38"/>
<path d="M467 197C469.475 197.495 469.475 197.495 472 198C473.98 204.6 475.96 211.2 478 218C480.31 211.07 482.62 204.14 485 197C486.32 197.33 487.64 197.66 489 198C490.005 199.718 490.005 199.718 490.703 201.93C490.961 202.725 491.219 203.52 491.484 204.34C491.737 205.176 491.99 206.013 492.25 206.875C492.518 207.704 492.786 208.533 493.062 209.387C495 215.506 495 215.506 495 219C495.66 219 496.32 219 497 219C497.083 217.969 497.165 216.938 497.25 215.875C498.031 209.415 500.125 203.21 502 197C503.32 197 504.64 197 506 197C505.383 203.552 503.861 209.572 502 215.875C501.727 216.824 501.453 217.772 501.172 218.75C499.155 225.689 499.155 225.689 498 228C496.68 228 495.36 228 494 228C490.535 218.1 490.535 218.1 487 208C486.134 210.166 486.134 210.166 485.25 212.375C483.167 217.583 481.083 222.792 479 228C477.134 227.869 477.134 227.869 475 227C473.812 224.456 473.812 224.456 472.859 221.102C472.511 219.9 472.163 218.699 471.805 217.461C471.283 215.562 471.283 215.562 470.75 213.625C470.386 212.367 470.023 211.109 469.648 209.812C467 200.513 467 200.513 467 197Z" fill="#272C35"/>
<path d="M266 185C267.65 185 269.3 185 271 185C271 199.19 271 213.38 271 228C268.333 228 265.667 228 263 228C261.907 228.227 260.814 228.454 259.687 228.688C255.357 229.055 253.594 228.369 250 226C245.411 220.937 245.723 215.71 245.781 209.176C246.11 204.408 247.556 201.666 250.625 198.125C254.278 196.395 258.026 196.437 262 197C262.99 197.66 263.98 198.32 265 199C265.33 194.38 265.66 189.76 266 185ZM252.625 202.75C249.502 207.074 249.436 211.766 250 217C251.202 220.247 252.094 222.282 254.812 224.438C257.862 225.222 259.981 224.835 263 224C264.803 223.003 264.803 223.003 266 221C266.326 218.255 266.464 215.803 266.437 213.062C266.457 212.346 266.477 211.63 266.498 210.893C266.495 207.404 266.273 205.373 264.191 202.527C260.239 199.773 256.467 199.919 252.625 202.75Z" fill="#252A33"/>
<path d="M434 187C435.32 187 436.64 187 438 187C439.659 191.23 441.313 195.462 442.962 199.695C443.522 201.131 444.084 202.566 444.647 204.001C447.749 211.91 450.777 219.787 453 228C451.35 228 449.7 228 448 228C447.494 226.732 446.995 225.46 446.5 224.188C446.222 223.48 445.943 222.772 445.656 222.043C445 220 445 220 445 217C439.06 217 433.12 217 427 217C426.01 220.3 425.02 223.6 424 227C421.525 227.495 421.525 227.495 419 228C419.637 222.995 421.091 218.677 422.906 214.012C423.191 213.268 423.476 212.524 423.769 211.758C424.368 210.196 424.97 208.636 425.575 207.076C426.503 204.68 427.422 202.281 428.34 199.881C428.924 198.362 429.509 196.843 430.094 195.324C430.37 194.604 430.646 193.885 430.93 193.143C432.884 188.116 432.884 188.116 434 187ZM435 194C433.996 196.79 432.997 199.582 432 202.375C431.714 203.169 431.428 203.963 431.133 204.781C430.862 205.542 430.591 206.302 430.312 207.086C430.061 207.788 429.81 208.489 429.551 209.212C428.902 211.007 428.902 211.007 429 213C433.62 213 438.24 213 443 213C442.049 210.206 441.089 207.415 440.125 204.625C439.856 203.831 439.586 203.037 439.309 202.219C439.044 201.458 438.78 200.698 438.508 199.914C438.267 199.212 438.026 198.511 437.778 197.788C437.042 195.797 437.042 195.797 435 194Z" fill="#272C35"/>
<path d="M34 187C38.6111 188.766 40.6781 191.7 43 196C43.25 198.875 43.25 198.875 43 201C41.68 201 40.36 201 39 201C38.7345 200.434 38.4689 199.868 38.1953 199.285C37.8421 198.552 37.4889 197.818 37.125 197.063C36.777 196.332 36.4289 195.601 36.0703 194.848C35.1315 192.837 35.1315 192.837 33 192C28.7167 191.496 25.1833 191.181 21.5625 193.688C18.395 198.375 17.7059 202.304 17.6875 207.938C17.6708 209.122 17.654 210.307 17.6367 211.527C18.1391 216.33 19.5547 219.72 23.1875 222.938C27.0456 224.395 30.1674 224.714 34 223C35.6021 220.993 36.7037 219.036 37.7969 216.715C38.1939 216.149 38.591 215.583 39 215C40.32 215 41.64 215 43 215C42.7574 219.125 42.3944 221.478 39.875 224.813C35.3372 228.265 31.6556 229 26 229C21.3039 228.233 17.9762 225.636 15 222C12.4358 217.391 12.6678 212.697 12.6875 207.563C12.6634 206.312 12.6634 206.312 12.6387 205.037C12.6347 199.938 13.1612 196.407 16 192C21.8817 186.692 26.252 186.394 34 187Z" fill="#252B34"/>
<path d="M338.938 198.25C341.876 200.743 342.859 202.825 343.319 206.657C343.366 208.134 343.366 208.134 343.414 209.641C343.453 210.71 343.491 211.78 343.531 212.883C343.562 213.994 343.593 215.105 343.625 216.25C343.664 217.377 343.702 218.503 343.742 219.664C343.836 222.442 343.922 225.221 344 228C342.35 228 340.7 228 339 228C338.67 227.34 338.34 226.68 338 226C336.484 226.773 336.484 226.773 334.938 227.562C330.954 229.244 328.214 229.249 324 228C320.347 225.357 319.172 223.962 318.375 219.5C319.154 215.137 320.566 213.715 324 211C327.285 209.905 329.737 209.9 333.188 209.937C334.818 209.951 334.818 209.951 336.48 209.965C337.312 209.976 338.143 209.988 339 210C338.401 207.648 337.731 205.314 337 203C333.95 201.475 331.358 201.764 328 202C325.896 203.543 325.159 204.681 324 207C322.68 207 321.36 207 320 207C320.609 201.515 320.609 201.515 322.375 199.187C327.063 195.761 333.808 196.067 338.938 198.25ZM324.188 216.625C323.796 217.079 323.404 217.532 323 218C324.25 221.653 324.671 222.781 328 225C331.942 224.914 333.717 224.215 336.875 221.812C339.345 218.543 339.465 216.998 339 213C330.977 212.692 330.977 212.692 324.188 216.625Z" fill="#262C35"/>
<path d="M527 197C530.635 198.624 531.774 199.661 534 203C534.319 205.636 534.319 205.636 534.414 208.762C534.453 209.88 534.491 210.998 534.531 212.15C534.562 213.318 534.593 214.485 534.625 215.688C534.664 216.866 534.702 218.045 534.742 219.26C534.837 222.173 534.922 225.086 535 228C533.35 228 531.7 228 530 228C529.67 227.34 529.34 226.68 529 226C528.031 226.536 527.061 227.073 526.062 227.625C522.067 229.334 519.091 229.019 514.961 227.855C513 227 513 227 510.875 224.813C509.716 221.088 509.976 218.753 511 215C513.265 212.131 514.517 211.161 518 210C520.061 209.931 522.125 209.915 524.187 209.938C525.817 209.951 525.817 209.951 527.48 209.965C528.312 209.976 529.143 209.988 530 210C529.401 207.648 528.731 205.314 528 203C524.95 201.475 522.358 201.764 519 202C516.896 203.543 516.159 204.681 515 207C513.68 207 512.36 207 511 207C511.182 203.003 511.552 201.426 514.5 198.625C518.872 196.595 522.259 196.265 527 197ZM515 217C514.5 219.457 514.5 219.457 515 222C516.538 224.029 516.538 224.029 519 225C522.619 224.923 524.725 224.156 527.875 222.375C530.374 220.062 530.374 220.062 530.312 216.25C530.209 215.178 530.106 214.105 530 213C521.761 212.683 521.761 212.683 515 217Z" fill="#282D36"/>
<path d="M234 197C237.696 199.327 239.554 201.026 241.375 205C242 208 242 208 242 213C235.07 213 228.14 213 221 213C221.99 215.97 222.98 218.94 224 222C228.549 224.274 230.162 224.075 235 223C235.66 222.34 236.32 221.68 237 221C239.125 221.375 239.125 221.375 241 222C239.974 225.305 238.931 226.04 235.875 227.813C231.547 229.454 228.483 229.085 224 228C219.291 225.28 217.624 222.127 216 217C215.186 211.333 216.263 207.083 219 202C223.107 197.122 227.72 195.955 234 197ZM222 205C221.67 206.65 221.34 208.3 221 210C226.28 210 231.56 210 237 210C236.621 204.32 236.621 204.32 234.25 202.125C229.049 199.525 225.93 200.961 222 205Z" fill="#252B34"/>
<path d="M385 197C388.469 199.066 390.809 201.102 392 205C392 207.64 392 210.28 392 213C385.07 213 378.14 213 371 213C373.834 221.947 373.834 221.947 379 224C384.045 223.775 384.045 223.775 388 221C390.125 221.375 390.125 221.375 392 222C390.974 225.305 389.931 226.04 386.875 227.813C382.749 229.365 379.183 229.392 375 228C371.826 226.178 369.585 223.931 367.625 220.813C366.1 213.949 366.224 207.797 369.812 201.629C373.6 196.434 379.016 196.012 385 197ZM374.687 202.688C372.593 205.219 372.593 205.219 372 210C377.28 210 382.56 210 388 210C387.609 204.339 387.609 204.339 385.312 202.125C381.309 200.177 378.334 200.027 374.687 202.688Z" fill="#262C36"/>
<path d="M628 185C629.32 185 630.64 185 632 185C632.33 189.95 632.66 194.9 633 200C634.32 199.01 635.64 198.02 637 197C640.546 196.356 643.952 196.669 647.375 197.75C649.441 199.339 650.034 200.574 651 203C651.227 205.749 651.227 205.749 651.195 208.859C651.189 209.974 651.182 211.089 651.176 212.238C651.159 213.397 651.142 214.556 651.125 215.75C651.116 216.924 651.107 218.099 651.098 219.309C651.074 222.206 651.041 225.103 651 228C649.68 228 648.36 228 647 228C646.975 227.349 646.95 226.699 646.924 226.028C646.808 223.081 646.685 220.134 646.562 217.188C646.523 216.163 646.484 215.139 646.443 214.084C646.401 213.101 646.36 212.118 646.316 211.105C646.28 210.199 646.243 209.294 646.205 208.36C646.079 205.85 646.079 205.85 645 203C642.125 201.563 640.181 201.618 637 202C634.437 204.204 633.169 206.021 632.588 209.38C632.382 212.195 632.292 214.99 632.25 217.812C632.22 218.792 632.191 219.771 632.16 220.779C632.09 223.186 632.037 225.592 632 228C630.68 228 629.36 228 628 228C628 213.81 628 199.62 628 185Z" fill="#2A2F39"/>
<path d="M160.812 198.125C163.624 200.535 164.729 202.521 166 206C166 208.31 166 210.62 166 213C159.07 213 152.14 213 145 213C147.119 220.536 147.119 220.536 150.312 223.063C155.265 224.79 159.374 223.041 164 221C164 225 164 225 162.5 226.688C157.523 229.301 153.514 229.429 148.25 227.938C144.557 225.736 142.271 224.114 141 220C139.55 207.397 139.55 207.397 142.687 202.313C148.154 196.846 153.514 195.206 160.812 198.125ZM146 206C145.67 207.32 145.34 208.64 145 210C150.61 210 156.22 210 162 210C160.562 204.464 160.562 204.464 157 201C151.504 200.044 149.38 201.751 146 206Z" fill="#252B34"/>
<path d="M674 197C677.443 198.721 679.404 199.998 681.375 203.312C682 206 682 206 682 213C675.07 213 668.14 213 661 213C663.119 220.536 663.119 220.536 666.313 223.062C671.265 224.79 675.374 223.041 680 221C680 225 680 225 678.438 226.687C674.625 228.74 671.216 229.389 666.91 228.633C663.033 227.463 661.2 226.23 658.5 223.125C655.953 217.791 656.269 211.738 657 206C660.421 198.652 665.916 195.576 674 197ZM662 206C661.67 207.32 661.34 208.64 661 210C666.61 210 672.22 210 678 210C676.562 204.464 676.562 204.464 673 201C667.504 200.044 665.38 201.751 662 206Z" fill="#272C36"/>
<path d="M723.813 198.187C726.418 200.347 727.678 201.868 729 205C729 207.64 729 210.28 729 213C722.07 213 715.14 213 708 213C710.835 221.947 710.835 221.947 716 224C721.045 223.774 721.045 223.774 725 221C727.125 221.375 727.125 221.375 729 222C727.974 225.305 726.931 226.04 723.875 227.812C719.75 229.365 716.183 229.392 712 228C707.744 225.557 705.507 222.642 704 218C703.043 211.261 703.702 206.22 707.516 200.559C711.933 195.921 718.181 195.81 723.813 198.187ZM709 206C708.67 207.32 708.34 208.64 708 210C713.61 210 719.22 210 725 210C723.943 204.444 723.943 204.444 720 201C714.521 199.951 712.365 201.769 709 206Z" fill="#252B35"/>
<path d="M66 197C69.6076 198.737 71.485 200.313 73.875 203.5C75.8816 209.743 76.4023 217 73.5 223.063C70.3487 226.765 67.8138 228.322 63 229C58.9509 228.892 55.4875 228.275 52.3555 225.59C47.2978 219.658 47.4678 214.529 48 207C49.2855 203.001 50.5261 201.429 53.625 198.625C57.9449 196.545 61.2894 196.173 66 197ZM55.125 203.313C51.8061 207.51 51.6444 210.755 52 216C53.3007 219.56 54.4071 221.503 57.3125 223.938C60.7734 225.306 62.483 225.197 66 224C69.9587 219.827 71.3458 216.962 71.293 211.172C70.791 207.451 69.1283 205.067 67 202C62.5428 199.771 58.9259 200.255 55.125 203.313Z" fill="#262C35"/>
<path d="M586.5 198.625C589.448 201.426 589.818 203.003 590 207C587.688 207.313 587.688 207.313 585 207C584.319 205.763 584.319 205.763 583.625 204.5C583.089 203.675 582.553 202.85 582 202C578.573 201.639 576.119 201.441 573 203C572.344 205.527 572.344 205.527 572 208C572.724 208.17 573.449 208.34 574.195 208.516C579.885 209.942 584.429 211.271 589 215C590.444 217.889 590.377 219.797 590 223C587.32 226.769 585.639 227.845 581.125 228.938C576.385 229.251 572.073 228.451 568.125 225.688C566.681 223.521 566.346 221.559 566 219C567.65 219 569.3 219 571 219C571.33 220.32 571.66 221.64 572 223C577.969 224.244 577.969 224.244 583.562 222.563C585.222 221.127 585.222 221.127 584.93 219.152C584.14 216.645 584.14 216.645 580.945 215.691C578.404 214.94 575.862 214.19 573.32 213.441C569.563 211.81 568.543 210.738 567 207C567.13 203.752 567.399 201.792 569.375 199.188C574.417 195.503 581.146 196.139 586.5 198.625Z" fill="#262B35"/>
<path d="M538 197C540.36 197.207 540.36 197.207 543 198C544.302 200.041 544.302 200.041 545.238 202.691C545.583 203.636 545.928 204.58 546.283 205.553C546.623 206.546 546.963 207.539 547.312 208.562C547.672 209.56 548.031 210.557 548.4 211.584C549.285 214.05 550.151 216.521 551 219C551.324 218.054 551.324 218.054 551.655 217.088C552.645 214.238 553.666 211.401 554.688 208.562C555.027 207.569 555.367 206.576 555.717 205.553C556.062 204.608 556.406 203.664 556.762 202.691C557.225 201.38 557.225 201.38 557.698 200.041C559 198 559 198 561.64 197.207C562.808 197.104 562.808 197.104 564 197C561.857 205.478 559.129 213.666 556.125 221.875C555.703 223.071 555.282 224.268 554.848 225.5C550.792 236.588 550.792 236.588 546 240C542.688 240.312 542.688 240.312 540 240C540 238.68 540 237.36 540 236C542.97 235.505 542.97 235.505 546 235C549.091 226.319 546.655 220.856 543.125 212.625C542.165 210.306 541.21 207.986 540.258 205.664C539.826 204.648 539.394 203.632 538.95 202.584C538 200 538 200 538 197Z" fill="#262C35"/>
<path d="M81 197C82.32 197 83.64 197 85 197C85.33 197.99 85.66 198.98 86 200C86.4744 199.505 86.9487 199.01 87.4375 198.5C91.2148 196.289 94.7203 196.41 99 197C102.289 198.727 102.814 199.442 104 203C104.083 204.919 104.107 206.841 104.098 208.762C104.094 209.88 104.091 210.998 104.088 212.15C104.08 213.318 104.071 214.485 104.062 215.688C104.058 216.866 104.053 218.045 104.049 219.26C104.037 222.173 104.021 225.087 104 228C102.68 228 101.36 228 100 228C99.9802 227.319 99.9604 226.638 99.9399 225.936C99.8447 222.853 99.735 219.77 99.625 216.688C99.5941 215.616 99.5631 214.544 99.5312 213.439C99.4926 212.411 99.4539 211.383 99.4141 210.324C99.3826 209.376 99.3512 208.429 99.3188 207.452C99.1511 204.747 99.1511 204.747 97 202C94.1284 201.332 94.1284 201.332 91 202C88.0164 204.09 86.2624 205.736 85.5061 209.379C85.2837 212.199 85.2046 214.984 85.1875 217.813C85.1624 218.792 85.1372 219.771 85.1113 220.779C85.0526 223.187 85.0162 225.592 85 228C83.68 228 82.36 228 81 228C81 217.77 81 207.54 81 197Z" fill="#292E37"/>
<path d="M112 197C113.32 197 114.64 197 116 197C116.33 197.99 116.66 198.98 117 200C117.495 199.505 117.99 199.01 118.5 198.5C121.949 196.43 125.124 196.292 129 197C132.443 199.124 133.716 200.149 135 204C135.082 205.846 135.107 207.695 135.098 209.543C135.094 210.616 135.091 211.689 135.088 212.795C135.08 213.914 135.071 215.034 135.062 216.188C135.058 217.319 135.053 218.45 135.049 219.615C135.037 222.41 135.021 225.205 135 228C133.68 228 132.36 228 131 228C130.975 227.349 130.95 226.699 130.924 226.028C130.808 223.081 130.685 220.134 130.562 217.188C130.523 216.163 130.484 215.139 130.443 214.084C130.401 213.101 130.36 212.118 130.316 211.105C130.28 210.2 130.243 209.294 130.205 208.36C130.079 205.85 130.079 205.85 129 203C126.254 201.627 124.041 201.876 121 202C120.01 202.33 119.02 202.66 118 203C117.027 205.92 116.807 208.054 116.684 211.105C116.642 212.088 116.6 213.071 116.557 214.084C116.517 215.108 116.478 216.132 116.438 217.188C116.373 218.741 116.373 218.741 116.307 220.326C116.201 222.884 116.098 225.442 116 228C114.68 228 113.36 228 112 228C112 217.77 112 207.54 112 197Z" fill="#292F37"/>
<path d="M309.887 197.906C312.803 200.11 313.944 201.787 314.875 205.313C314.916 206.199 314.958 207.086 315 208C313.68 208 312.36 208 311 208C309.375 205.563 309.375 205.563 308 203C305.159 201.58 303.145 201.685 300 202C297.483 203.264 297.483 203.264 296 206C294.784 210.864 294.554 214.752 296.25 219.5C297.921 222.21 297.921 222.21 301 224C304.54 224.078 304.54 224.078 308 223C309.699 220.502 309.699 220.502 311 218C312.32 218 313.64 218 315 218C314.75 221.664 314.415 223.535 311.938 226.313C306.793 229.268 302.84 229.46 297.25 228.063C292.988 225.358 291.368 222.82 290 218C289.122 211.614 289.9 206.626 293 201C296.873 196.158 304.375 195.259 309.887 197.906Z" fill="#242932"/>
<path d="M190.375 198.562C193.557 201.518 194.19 203.79 195 208C193.35 208 191.7 208 190 208C189.711 207.196 189.423 206.391 189.125 205.562C188.267 202.867 188.267 202.867 186 202C181.294 201.519 181.294 201.519 177.125 203.312C174.323 207.515 174.562 212.152 175 217C175.842 220.523 175.842 220.523 178 223C181.759 224.162 183.841 224.61 187.375 222.75C189.233 220.991 189.233 220.991 190 218C191.65 218 193.3 218 195 218C194.123 221.509 193.32 223.662 190.812 226.312C187.343 228.394 185.048 228.93 181 229C176.432 227.553 173.389 226.247 171 222C169.899 218.697 169.798 216.102 169.75 212.625C169.724 211.503 169.698 210.382 169.672 209.227C170.156 204.47 172.346 201.045 176 198C181.289 196.237 185.387 196.253 190.375 198.562Z" fill="#252B34"/>
<path d="M232 89C232.33 89 232.66 89 233 89C233.33 114.08 233.66 139.16 234 165C248.104 164.938 248.104 164.938 262.207 164.84C267.967 164.792 273.727 164.748 279.488 164.729C284.137 164.714 288.786 164.679 293.435 164.632C295.2 164.617 296.965 164.609 298.73 164.608C308.01 164.599 316.028 164.377 324.746 160.756C327 160 327 160 330 161C328.547 161.637 327.087 162.259 325.625 162.875C324.813 163.223 324.001 163.571 323.164 163.93C312.885 167.407 302.681 167.264 291.961 167.195C290.422 167.192 288.884 167.19 287.345 167.189C281.688 167.179 276.032 167.151 270.375 167.125C257.711 167.084 245.047 167.043 232 167C232 141.26 232 115.52 232 89Z" fill="#262E39"/>
<path d="M202 190C203.32 190 204.64 190 206 190C206 192.31 206 194.62 206 197C207.98 197 209.96 197 212 197C212 198.32 212 199.64 212 201C210.02 201 208.04 201 206 201C206.33 208.59 206.66 216.18 207 224C208.98 224 210.96 224 213 224C213 225.32 213 226.64 213 228C207.659 229.214 207.659 229.214 204.688 228.25C203 227 203 227 202 224C201.918 222.227 201.893 220.451 201.902 218.676C201.907 217.134 201.907 217.134 201.912 215.561C201.92 214.489 201.929 213.417 201.938 212.312C201.942 211.229 201.947 210.146 201.951 209.029C201.963 206.353 201.979 203.676 202 201C200.35 201 198.7 201 197 201C197 199.68 197 198.36 197 197C198.65 197 200.3 197 202 197C202 194.69 202 192.38 202 190Z" fill="#282D37"/>
<path d="M612 190C613.32 190 614.64 190 616 190C616 192.31 616 194.62 616 197C617.98 197 619.96 197 622 197C622 198.32 622 199.64 622 201C620.02 201 618.04 201 616 201C616.33 208.26 616.66 215.52 617 223C618.65 223.33 620.3 223.66 622 224C622 225.32 622 226.64 622 228C618.864 228.986 617.428 229.181 614.355 227.88C612 226 612 226 611.432 223.365C611.459 222.333 611.485 221.301 611.512 220.238C611.528 219.12 611.544 218.002 611.561 216.85C611.602 215.682 611.644 214.515 611.688 213.312C611.721 211.544 611.721 211.544 611.756 209.74C611.815 206.826 611.897 203.913 612 201C610.02 201 608.04 201 606 201C606 199.68 606 198.36 606 197C607.98 197 609.96 197 612 197C612 194.69 612 192.38 612 190Z" fill="#262C35"/>
<path d="M688 197C689.32 197 690.64 197 692 197C692.33 197.66 692.66 198.32 693 199C693.99 198.34 694.98 197.68 696 197C699.188 196.875 699.188 196.875 702 197C702 198.32 702 199.64 702 201C700.329 201.402 700.329 201.402 698.625 201.812C694.782 202.658 694.782 202.658 693 206C692.634 208.417 692.634 208.417 692.586 211.105C692.547 212.088 692.509 213.071 692.469 214.084C692.422 215.62 692.422 215.62 692.375 217.188C692.336 218.223 692.298 219.259 692.258 220.326C692.164 222.884 692.078 225.442 692 228C690.35 228 688.7 228 687 228C686.975 223.746 686.957 219.492 686.945 215.238C686.94 213.789 686.933 212.341 686.925 210.893C686.912 208.815 686.907 206.738 686.902 204.66C686.897 203.409 686.892 202.157 686.886 200.867C687 198 687 198 688 197Z" fill="#262C35"/>
<path d="M351 197C352.32 197 353.64 197 355 197C355.33 197.66 355.66 198.32 356 199C356.99 198.34 357.98 197.68 359 197C362.188 196.875 362.188 196.875 365 197C365 198.32 365 199.64 365 201C363.329 201.402 363.329 201.402 361.625 201.812C357.782 202.658 357.782 202.658 356 206C355.634 208.417 355.634 208.417 355.586 211.105C355.547 212.088 355.509 213.071 355.469 214.084C355.422 215.62 355.422 215.62 355.375 217.188C355.336 218.223 355.298 219.259 355.258 220.326C355.164 222.884 355.078 225.442 355 228C353.68 228 352.36 228 351 228C351 217.77 351 207.54 351 197Z" fill="#272C35"/>
<path d="M458 186C459.32 186 460.64 186 462 186C462 199.86 462 213.72 462 228C460.68 228 459.36 228 458 228C458 214.14 458 200.28 458 186Z" fill="#242A34"/>
<path d="M398 222C399.32 222 400.64 222 402 222C402.274 227.394 402.361 230.519 399 235C397.68 234.67 396.36 234.34 395 234C395.99 230.04 396.98 226.08 398 222Z" fill="#232831"/>
<path d="M346 118C346.33 118 346.66 118 347 118C347 120.31 347 122.62 347 125C345.68 125.33 344.36 125.66 343 126C343.33 126.99 343.66 127.98 344 129C343.01 129.33 342.02 129.66 341 130C341 130.66 341 131.32 341 132C339.349 133.026 337.68 134.023 336 135C334.249 136.582 334.249 136.582 333 138C332.34 137.67 331.68 137.34 331 137C331.664 136.383 332.328 135.765 333.012 135.129C338.519 129.847 342.807 124.957 346 118Z" fill="#262E39"/>
<path d="M23.0625 188.312C25 189 25 189 26 191C25.2369 191.412 24.4737 191.825 23.6875 192.25C21.0633 193.959 19.6968 195.41 18 198C17 196 17 196 17 193C18.3503 189.721 19.1783 187.724 23.0625 188.312Z" fill="#222830"/>
<path d="M237 71C238.327 74.9814 238.069 78.8505 238 83C237.361 83.1238 236.721 83.2475 236.062 83.375C235.382 83.5812 234.701 83.7875 234 84C233.67 84.66 233.34 85.32 233 86C234.927 75.4419 234.927 75.4419 237 71Z" fill="#262E39"/>
<path d="M39 215C40.32 215 41.64 215 43 215C42.8125 217.875 42.8125 217.875 42 221C39.4375 222.375 39.4375 222.375 37 223C36.67 222.34 36.34 221.68 36 221C36.9345 218.969 37.9322 216.965 39 215Z" fill="#262C35"/>
<path d="M324 211C324.66 211.99 325.32 212.98 326 214C325.25 215.938 325.25 215.938 324 218C321.875 218.75 321.875 218.75 320 219C319.67 218.01 319.34 217.02 319 216C320.65 214.35 322.3 212.7 324 211Z" fill="#20242C"/>
<path d="M278 71C278.66 71.33 279.32 71.66 280 72C279.288 73.1756 279.288 73.1756 278.562 74.375C277.661 75.8895 276.788 77.4236 276 79C275.01 79 274.02 79 273 79C273 79.99 273 80.98 273 82C272.34 82 271.68 82 271 82C270.67 82.99 270.34 83.98 270 85C269.67 84.34 269.34 83.68 269 83C270.123 81.3733 271.248 79.7487 272.375 78.125C273.315 76.7676 273.315 76.7676 274.273 75.3828C276 73 276 73 278 71Z" fill="#262E39"/>
<path d="M309 65C314.706 65.428 318.411 67.8435 323 71C319.799 72.6003 317.277 71.0317 314 70C314 69.01 314 68.02 314 67C312.68 67.33 311.36 67.66 310 68C309.67 67.01 309.34 66.02 309 65Z" fill="#262E39"/>
<path d="M287 32.0001C286.06 32.4158 286.06 32.4158 285.102 32.8399C284.284 33.2021 283.467 33.5644 282.625 33.9376C281.813 34.2972 281.001 34.6569 280.164 35.0274C278.763 35.6571 277.374 36.3132 276 37.0001C274 37.0401 272 37.0435 270 37.0001C274.47 32.9186 281.083 30.0099 287 32.0001Z" fill="#262E39"/>
<path d="M376 197C376.66 197.33 377.32 197.66 378 198C377.602 200.886 377.21 201.822 374.938 203.75C374.298 204.162 373.659 204.575 373 205C373 204.34 373 203.68 373 203C372.01 202.67 371.02 202.34 370 202C373.75 198.125 373.75 198.125 376 197Z" fill="#20262B"/>
<path d="M206 222C206.33 222.66 206.66 223.32 207 224C208.98 224 210.96 224 213 224C213 225.32 213 226.64 213 228C211.02 228.33 209.04 228.66 207 229C207 228.01 207 227.02 207 226C206.694 224.66 206.365 223.325 206 222Z" fill="#1B232F"/>
<path d="M649 199C649.66 200.65 650.32 202.3 651 204C649.35 204.33 647.7 204.66 646 205C645.01 203.68 644.02 202.36 643 201C646.75 199 646.75 199 649 199Z" fill="#232830"/>
<path d="M398 222C398.99 222 399.98 222 401 222C401.369 227.415 401.369 227.415 399.5 230.375C399.005 230.911 398.51 231.447 398 232C396.762 228.424 397.251 225.663 398 222Z" fill="#2B3037"/>
<path d="M94 142C94.66 142.33 95.32 142.66 96 143C94.7145 144.339 93.4214 145.671 92.125 147C91.4057 147.743 90.6864 148.485 89.9453 149.25C88 151 88 151 86 151C86 149.35 86 147.7 86 146C86.99 146.33 87.98 146.66 89 147C90.65 145.35 92.3 143.7 94 142Z" fill="#23282F"/>
<path d="M348 144C349.32 144.33 350.64 144.66 352 145C348.535 147.97 348.535 147.97 345 151C345 149.35 345 147.7 345 146C345.99 146 346.98 146 348 146C348 145.34 348 144.68 348 144Z" fill="#262E39"/>
<path d="M560 197C561.32 197 562.64 197 564 197C563.67 198.65 563.34 200.3 563 202C561.35 202 559.7 202 558 202C558.66 200.35 559.32 198.7 560 197Z" fill="#22272F"/>
<path d="M334 154C335.65 154.33 337.3 154.66 339 155C337.067 157.025 335.368 158.421 333 160C332.01 159.67 331.02 159.34 330 159C330.66 159 331.32 159 332 159C332.66 157.35 333.32 155.7 334 154Z" fill="#262E39"/>
<path d="M239.312 221.25C240.148 221.621 240.148 221.621 241 222C240.67 222.99 240.34 223.98 240 225C237.36 225 234.72 225 232 225C236.431 220.938 236.431 220.938 239.312 221.25Z" fill="#1A2229"/>
<path d="M202 190C202.33 190.99 202.66 191.98 203 193C203.66 193.33 204.32 193.66 205 194C204.375 195.938 204.375 195.938 203 198C199.875 198.75 199.875 198.75 197 199C197 198.34 197 197.68 197 197C198.65 197 200.3 197 202 197C202 194.69 202 192.38 202 190Z" fill="#23282E"/>
<path d="M323 72C324.98 73.65 326.96 75.3 329 77C328.67 77.66 328.34 78.32 328 79C325.03 78.505 325.03 78.505 322 78C322.66 77.67 323.32 77.34 324 77C323.67 75.35 323.34 73.7 323 72Z" fill="#262E39"/>
<path d="M347 47C353.571 52.1429 353.571 52.1429 355 56C353.25 55.875 353.25 55.875 351 55C347 49.7778 347 49.7778 347 47Z" fill="#262E39"/>
<path d="M268 86C268.33 86 268.66 86 269 86C269 87.98 269 89.96 269 92C269.66 92.33 270.32 92.66 271 93C269.68 93.99 268.36 94.98 267 96C266.875 88.25 266.875 88.25 268 86Z" fill="#262E39"/>
<path d="M329 79C331.329 81.1177 332.888 83.0334 334 86C333.67 86.99 333.34 87.98 333 89C330.166 85.7966 329.479 83.2191 329 79Z" fill="#262E39"/>
<path d="M85 64C87 66 87 66 87.125 68.625C87.0837 69.4087 87.0425 70.1925 87 71C85.0625 70.1875 85.0625 70.1875 83 69C82.67 68.01 82.34 67.02 82 66C82.99 66 83.98 66 85 66C85 65.34 85 64.68 85 64Z" fill="#212931"/>
<path d="M276 50C279.625 50.375 279.625 50.375 283 51C280.614 52.8921 278.928 54.0239 276 55C276 54.34 276 53.68 276 53C275.34 52.67 274.68 52.34 274 52C274.66 51.34 275.32 50.68 276 50Z" fill="#262E39"/>
<path d="M675 199C676.938 199.375 676.938 199.375 679 200C679.33 200.66 679.66 201.32 680 202C678.35 202.66 676.7 203.32 675 204C674.67 203.01 674.34 202.02 674 201C674.33 200.34 674.66 199.68 675 199Z" fill="#21252C"/>
<path d="M77 154C77.99 154.66 78.98 155.32 80 156C74.5846 159.077 74.5846 159.077 71.625 158.688C71.0888 158.461 70.5525 158.234 70 158C72.31 156.68 74.62 155.36 77 154Z" fill="#22262D"/>
</svg>
